<svg aria-hidden="true" style="position: absolute; width: 0; height: 0; overflow: hidden;" version="1.1" xmlns="http://www.w3.org/2000/svg" xmlns:xlink="http://www.w3.org/1999/xlink">
<defs>
<symbol id="icon-shield" viewBox="0 0 20 28">
<path d="M17 15v-10h-7v17.766c0.797-0.422 2.078-1.156 3.328-2.141 1.672-1.313 3.672-3.359 3.672-5.625zM20 3v12c0 6.578-9.203 10.734-9.594 10.906-0.125 0.063-0.266 0.094-0.406 0.094s-0.281-0.031-0.406-0.094c-0.391-0.172-9.594-4.328-9.594-10.906v-12c0-0.547 0.453-1 1-1h18c0.547 0 1 0.453 1 1z"></path>
</symbol>
<symbol id="icon-menu" viewBox="0 0 32 32">
<path d="M2 6h28v6h-28zM2 14h28v6h-28zM2 22h28v6h-28z"></path>
</symbol>
<symbol id="icon-cross" viewBox="0 0 32 32">
<path d="M31.708 25.708c-0-0-0-0-0-0l-9.708-9.708 9.708-9.708c0-0 0-0 0-0 0.105-0.105 0.18-0.227 0.229-0.357 0.133-0.356 0.057-0.771-0.229-1.057l-4.586-4.586c-0.286-0.286-0.702-0.361-1.057-0.229-0.13 0.048-0.252 0.124-0.357 0.228 0 0-0 0-0 0l-9.708 9.708-9.708-9.708c-0-0-0-0-0-0-0.105-0.104-0.227-0.18-0.357-0.228-0.356-0.133-0.771-0.057-1.057 0.229l-4.586 4.586c-0.286 0.286-0.361 0.702-0.229 1.057 0.049 0.13 0.124 0.252 0.229 0.357 0 0 0 0 0 0l9.708 9.708-9.708 9.708c-0 0-0 0-0 0-0.104 0.105-0.18 0.227-0.229 0.357-0.133 0.355-0.057 0.771 0.229 1.057l4.586 4.586c0.286 0.286 0.702 0.361 1.057 0.229 0.13-0.049 0.252-0.124 0.357-0.229 0-0 0-0 0-0l9.708-9.708 9.708 9.708c0 0 0 0 0 0 0.105 0.105 0.227 0.18 0.357 0.229 0.356 0.133 0.771 0.057 1.057-0.229l4.586-4.586c0.286-0.286 0.362-0.702 0.229-1.057-0.049-0.13-0.124-0.252-0.229-0.357z"></path>
</symbol>
<symbol id="icon-user-circle-o" viewBox="0 0 28 28">
<path d="M14 0c7.734 0 14 6.266 14 14 0 7.688-6.234 14-14 14-7.75 0-14-6.297-14-14 0-7.734 6.266-14 14-14zM23.672 21.109c1.453-2 2.328-4.453 2.328-7.109 0-6.609-5.391-12-12-12s-12 5.391-12 12c0 2.656 0.875 5.109 2.328 7.109 0.562-2.797 1.922-5.109 4.781-5.109 1.266 1.234 2.984 2 4.891 2s3.625-0.766 4.891-2c2.859 0 4.219 2.312 4.781 5.109zM20 11c0-3.313-2.688-6-6-6s-6 2.688-6 6 2.688 6 6 6 6-2.688 6-6z"></path>
</symbol>
<symbol id="icon-menu" viewBox="0 0 32 32">
<path d="M2 6h28v6h-28zM2 14h28v6h-28zM2 22h28v6h-28z"></path>
</symbol>
<symbol id="icon-heart1" viewBox="0 0 32 32">
<path d="M23.6 2c-3.363 0-6.258 2.736-7.599 5.594-1.342-2.858-4.237-5.594-7.601-5.594-4.637 0-8.4 3.764-8.4 8.401 0 9.433 9.516 11.906 16.001 21.232 6.13-9.268 15.999-12.1 15.999-21.232 0-4.637-3.763-8.401-8.4-8.401z"></path>
</symbol>
<symbol id="icon-heart-broken" viewBox="0 0 32 32">
<path d="M23.6 2c4.637 0 8.4 3.764 8.4 8.401 0 9.132-9.87 11.964-15.999 21.232-6.485-9.326-16.001-11.799-16.001-21.232 0-4.637 3.763-8.401 8.4-8.401 1.886 0 3.625 0.86 5.025 2.12l-2.425 3.88 7 4-4 10 11-12-7-4 1.934-2.901c1.107-0.68 2.35-1.099 3.665-1.099z"></path>
</symbol>
<symbol id="icon-medal" viewBox="0 0 32 32">
<path d="M19 1h-5v14.374c0.79-0.243 1.63-0.374 2.5-0.374s1.71 0.131 2.5 0.374v-14.374zM20 1h4v13l-1.247 3.742c-0.77-0.835-1.704-1.516-2.753-1.99v-14.752zM13 1h-4v13l1.247 3.742c0.77-0.835 1.704-1.516 2.753-1.99v-14.752zM16.5 31c4.142 0 7.5-3.358 7.5-7.5s-3.358-7.5-7.5-7.5c-4.142 0-7.5 3.358-7.5 7.5s3.358 7.5 7.5 7.5v0zM16.5 25.923l-2.769 2.077 0.769-3.462-2.5-2.538h3.5l1-3 1 3h3.5l-2.5 2.538 1 3.462-3-2.077z"></path>
</symbol>
<symbol id="icon-flag" viewBox="0 0 29 28">
<path d="M5 4c0 0.719-0.391 1.359-1 1.719v19.781c0 0.266-0.234 0.5-0.5 0.5h-1c-0.266 0-0.5-0.234-0.5-0.5v-19.781c-0.609-0.359-1-1-1-1.719 0-1.109 0.891-2 2-2s2 0.891 2 2zM28 5v11.922c0 0.578-0.359 0.797-0.812 1.031-1.766 0.953-3.719 1.813-5.766 1.813-2.875 0-4.25-2.188-7.656-2.188-2.484 0-5.094 1.125-7.25 2.281-0.172 0.094-0.328 0.141-0.516 0.141-0.547 0-1-0.453-1-1v-11.594c0-0.375 0.187-0.641 0.484-0.859 0.375-0.25 0.828-0.469 1.234-0.672 1.969-1 4.359-1.875 6.578-1.875 2.453 0 4.375 0.812 6.547 1.828 0.438 0.219 0.891 0.297 1.375 0.297 2.453 0 5.094-2.125 5.781-2.125 0.547 0 1 0.453 1 1z"></path>
</symbol>
<symbol id="icon-handshake-o" viewBox="0 0 36 28">
<path d="M3 18c1.313 0 1.313-2 0-2s-1.313 2 0 2zM26.016 17.094c-1.234-1.609-2.438-3.25-3.844-4.719l-1.953 2.188c-1.719 1.953-4.797 1.906-6.469-0.094-1.188-1.437-1.188-3.5 0.031-4.922l2.766-3.219c-0.969-0.5-2.141-0.328-3.187-0.328-0.922 0-1.813 0.375-2.469 1.031l-2.469 2.469h-2.422v8.5c0.688 0 1.312-0.094 1.859 0.438l4.641 4.562c0.953 0.922 2.187 1.734 3.547 1.734 0.703 0 1.453-0.234 1.953-0.734 1.172 0.406 2.531-0.25 2.891-1.453 0.75 0.063 1.437-0.172 1.984-0.688 0.359-0.328 0.828-0.984 0.781-1.5 0.141 0.141 0.484 0.156 0.672 0.156 1.859 0 2.828-1.953 1.687-3.422zM28.5 18h1.5v-8h-1.453l-2.453-2.812c-0.656-0.75-1.641-1.188-2.641-1.188h-2.609c-0.875 0-1.719 0.391-2.281 1.047l-3.266 3.797c-0.578 0.688-0.578 1.656-0.016 2.344 0.891 1.062 2.531 1.078 3.453 0.047l3.016-3.406c0.719-0.797 2.031-0.047 1.703 0.969 0.594 0.688 1.234 1.359 1.813 2.047 0.781 0.969 1.531 1.984 2.297 2.969 0.484 0.625 0.844 1.375 0.938 2.188zM33 18c1.313 0 1.313-2 0-2s-1.313 2 0 2zM36 9v10c0 0.547-0.453 1-1 1h-6.781c-0.562 1.359-1.797 2.266-3.234 2.469-0.672 0.984-1.703 1.734-2.859 1.984-0.859 1.094-2.25 1.75-3.641 1.656-2.578 1.453-5.484 0.187-7.406-1.703l-4.484-4.406h-5.594c-0.547 0-1-0.453-1-1v-10.5c0-0.547 0.453-1 1-1h6.578c1.813-1.813 3.062-3.5 5.781-3.5h1.828c1.016 0 2 0.313 2.828 0.875 0.828-0.562 1.813-0.875 2.828-0.875h2.609c2.969 0 4.203 1.937 6 4h5.547c0.547 0 1 0.453 1 1z"></path>
</symbol>
<symbol id="icon-star-half" viewBox="0 0 32 32">
<path d="M32 12.408l-11.056-1.607-4.944-10.018-4.944 10.018-11.056 1.607 8 7.798-1.889 11.011 9.889-5.199 9.889 5.199-1.889-11.011 8-7.798zM16 23.547l-0.029 0.015 0.029-17.837 3.492 7.075 7.807 1.134-5.65 5.507 1.334 7.776-6.983-3.671z"></path>
</symbol>
<symbol id="icon-wallet" viewBox="0 0 32 32">
<path d="M18 22c-1.104 0-2-0.896-2-2v-2c0-1.105 0.896-2 2-2h12v6h-12zM19.5 17.583c-0.828 0-1.5 0.672-1.5 1.5 0 0.829 0.672 1.5 1.5 1.5 0.829 0 1.5-0.671 1.5-1.5 0-0.828-0.671-1.5-1.5-1.5zM15 18v2c0 1.656 1.344 3 3 3h10v4c0 1.656-1.343 3-3 3h-21c-1.656 0-3-1.344-3-3v-19c0-1.657 1.344-3 3-3h9.632l-2.349 0.979h-7.782c-0.828 0-1.5 0.672-1.5 1.5s0.672 1.5 1.5 1.5h24.499v6.021h-10c-1.656 0-3 1.343-3 3zM5.001 11h-2v2h1v-1h1v-1zM5.001 14h-2v2h1.041l-0.041-1 1 0.021v-1.021zM5.001 17h-2v2h1.021l-0.021-1h1v-1zM5.001 20h-2v2h1.021l-0.021-1 1 0.021v-1.021zM5.001 23h-2v2h1v-1h1v-1zM5.001 26h-2v2h1.021l-0.021-0.979h1v-1.021zM9.001 7.938l11.75-4.938 2.25 4.938h-14zM22.646 5h2.354c0.876 0 1.656 0.381 2.205 0.979h-4.081l-0.478-0.979z"></path>
</symbol>
<symbol id="icon-group" viewBox="0 0 30 28">
<path d="M9.266 14c-1.625 0.047-3.094 0.75-4.141 2h-2.094c-1.563 0-3.031-0.75-3.031-2.484 0-1.266-0.047-5.516 1.937-5.516 0.328 0 1.953 1.328 4.062 1.328 0.719 0 1.406-0.125 2.078-0.359-0.047 0.344-0.078 0.688-0.078 1.031 0 1.422 0.453 2.828 1.266 4zM26 23.953c0 2.531-1.672 4.047-4.172 4.047h-13.656c-2.5 0-4.172-1.516-4.172-4.047 0-3.531 0.828-8.953 5.406-8.953 0.531 0 2.469 2.172 5.594 2.172s5.063-2.172 5.594-2.172c4.578 0 5.406 5.422 5.406 8.953zM10 4c0 2.203-1.797 4-4 4s-4-1.797-4-4 1.797-4 4-4 4 1.797 4 4zM21 10c0 3.313-2.688 6-6 6s-6-2.688-6-6 2.688-6 6-6 6 2.688 6 6zM30 13.516c0 1.734-1.469 2.484-3.031 2.484h-2.094c-1.047-1.25-2.516-1.953-4.141-2 0.812-1.172 1.266-2.578 1.266-4 0-0.344-0.031-0.688-0.078-1.031 0.672 0.234 1.359 0.359 2.078 0.359 2.109 0 3.734-1.328 4.062-1.328 1.984 0 1.937 4.25 1.937 5.516zM28 4c0 2.203-1.797 4-4 4s-4-1.797-4-4 1.797-4 4-4 4 1.797 4 4z"></path>
</symbol>
<symbol id="icon-heartbeat" viewBox="0 0 28 28">
<path d="M20 16h4.766c-0.187 0.203-0.313 0.313-0.344 0.344l-9.734 9.375c-0.187 0.187-0.438 0.281-0.688 0.281s-0.5-0.094-0.688-0.281l-9.75-9.406c-0.031-0.016-0.156-0.125-0.328-0.313h5.766c0.453 0 0.859-0.313 0.969-0.75l1.094-4.391 2.969 10.422c0.125 0.422 0.516 0.719 0.969 0.719v0c0.438 0 0.828-0.297 0.953-0.719l2.281-7.578 0.875 1.75c0.172 0.328 0.516 0.547 0.891 0.547zM28 9.312c0 1.797-0.781 3.437-1.609 4.688h-5.766l-1.734-3.453c-0.172-0.359-0.578-0.578-0.969-0.547-0.422 0.047-0.766 0.313-0.875 0.719l-2.016 6.719-3.063-10.719c-0.125-0.422-0.516-0.719-0.984-0.719-0.453 0-0.844 0.313-0.953 0.75l-1.813 7.25h-6.609c-0.828-1.25-1.609-2.891-1.609-4.688 0-4.578 2.797-7.313 7.469-7.313 2.734 0 5.297 2.156 6.531 3.375 1.234-1.219 3.797-3.375 6.531-3.375 4.672 0 7.469 2.734 7.469 7.313z"></path>
</symbol>
<symbol id="icon-graduation-cap" viewBox="0 0 36 28">
<path d="M27.719 13.062l0.281 4.937c0.125 2.203-4.484 4-10 4s-10.125-1.797-10-4l0.281-4.937 8.969 2.828c0.25 0.078 0.5 0.109 0.75 0.109s0.5-0.031 0.75-0.109zM36 8c0 0.219-0.141 0.406-0.344 0.484l-17.5 5.5c-0.063 0.016-0.109 0.016-0.156 0.016s-0.094 0-0.156-0.016l-10.187-3.219c-0.891 0.703-1.516 2.422-1.641 4.531 0.594 0.344 0.984 0.969 0.984 1.703 0 0.703-0.359 1.313-0.906 1.672l0.906 6.766c0.016 0.141-0.031 0.281-0.125 0.391s-0.234 0.172-0.375 0.172h-3c-0.141 0-0.281-0.063-0.375-0.172s-0.141-0.25-0.125-0.391l0.906-6.766c-0.547-0.359-0.906-0.969-0.906-1.672 0-0.75 0.422-1.391 1.016-1.734 0.094-1.828 0.562-3.797 1.531-5.156l-5.203-1.625c-0.203-0.078-0.344-0.266-0.344-0.484s0.141-0.406 0.344-0.484l17.5-5.5c0.063-0.016 0.109-0.016 0.156-0.016s0.094 0 0.156 0.016l17.5 5.5c0.203 0.078 0.344 0.266 0.344 0.484z"></path>
</symbol>
<symbol id="icon-phone" viewBox="0 0 32 32">
<path d="M22 20c-2 2-2 4-4 4s-4-2-6-4-4-4-4-6 2-2 4-4-4-8-6-8-6 6-6 6c0 4 4.109 12.109 8 16s12 8 16 8c0 0 6-4 6-6s-6-8-8-6z"></path>
</symbol>
<symbol id="icon-envelope" viewBox="0 0 20 20">
<path d="M18 2c1.105 0 2 0.895 2 2v0 12c0 1.105-0.895 2-2 2v0h-16c-1.105 0-2-0.895-2-2v0-12c0-1.1 0.9-2 2-2h16zM13.63 11.1l6.37 4.9v-2l-5.12-3.9 5.12-4.1v-2l-10 8-10-8v2l5.12 4.1-5.12 3.9v2l6.37-4.9 3.63 2.9 3.63-2.9z"></path>
</symbol>
<symbol id="icon-location" viewBox="0 0 32 32">
<path d="M16 0c-5.523 0-10 4.477-10 10 0 10 10 22 10 22s10-12 10-22c0-5.523-4.477-10-10-10zM16 16c-3.314 0-6-2.686-6-6s2.686-6 6-6 6 2.686 6 6-2.686 6-6 6z"></path>
</symbol>
</defs>
</svg>