<svg aria-hidden="true" style="position: absolute; width: 0; height: 0; overflow: hidden;" version="1.1" xmlns="http://www.w3.org/2000/svg" xmlns:xlink="http://www.w3.org/1999/xlink">
<defs>
<symbol id="icon-shield" viewBox="0 0 20 28">
<path d="M17 15v-10h-7v17.766c0.797-0.422 2.078-1.156 3.328-2.141 1.672-1.313 3.672-3.359 3.672-5.625zM20 3v12c0 6.578-9.203 10.734-9.594 10.906-0.125 0.063-0.266 0.094-0.406 0.094s-0.281-0.031-0.406-0.094c-0.391-0.172-9.594-4.328-9.594-10.906v-12c0-0.547 0.453-1 1-1h18c0.547 0 1 0.453 1 1z"></path>
</symbol>
<symbol id="icon-user-circle-o" viewBox="0 0 28 28">
<path d="M14 0c7.734 0 14 6.266 14 14 0 7.688-6.234 14-14 14-7.75 0-14-6.297-14-14 0-7.734 6.266-14 14-14zM23.672 21.109c1.453-2 2.328-4.453 2.328-7.109 0-6.609-5.391-12-12-12s-12 5.391-12 12c0 2.656 0.875 5.109 2.328 7.109 0.562-2.797 1.922-5.109 4.781-5.109 1.266 1.234 2.984 2 4.891 2s3.625-0.766 4.891-2c2.859 0 4.219 2.312 4.781 5.109zM20 11c0-3.313-2.688-6-6-6s-6 2.688-6 6 2.688 6 6 6 6-2.688 6-6z"></path>
</symbol>
<symbol id="icon-menu" viewBox="0 0 32 32">
<path d="M2 6h28v6h-28zM2 14h28v6h-28zM2 22h28v6h-28z"></path>
</symbol>
<symbol id="icon-heart1" viewBox="0 0 32 32">
<path d="M23.6 2c-3.363 0-6.258 2.736-7.599 5.594-1.342-2.858-4.237-5.594-7.601-5.594-4.637 0-8.4 3.764-8.4 8.401 0 9.433 9.516 11.906 16.001 21.232 6.13-9.268 15.999-12.1 15.999-21.232 0-4.637-3.763-8.401-8.4-8.401z"></path>
</symbol>
<symbol id="icon-heart-broken" viewBox="0 0 32 32">
<path d="M23.6 2c4.637 0 8.4 3.764 8.4 8.401 0 9.132-9.87 11.964-15.999 21.232-6.485-9.326-16.001-11.799-16.001-21.232 0-4.637 3.763-8.401 8.4-8.401 1.886 0 3.625 0.86 5.025 2.12l-2.425 3.88 7 4-4 10 11-12-7-4 1.934-2.901c1.107-0.68 2.35-1.099 3.665-1.099z"></path>
</symbol>
<symbol id="icon-medal" viewBox="0 0 32 32">
<path d="M19 1h-5v14.374c0.79-0.243 1.63-0.374 2.5-0.374s1.71 0.131 2.5 0.374v-14.374zM20 1h4v13l-1.247 3.742c-0.77-0.835-1.704-1.516-2.753-1.99v-14.752zM13 1h-4v13l1.247 3.742c0.77-0.835 1.704-1.516 2.753-1.99v-14.752zM16.5 31c4.142 0 7.5-3.358 7.5-7.5s-3.358-7.5-7.5-7.5c-4.142 0-7.5 3.358-7.5 7.5s3.358 7.5 7.5 7.5v0zM16.5 25.923l-2.769 2.077 0.769-3.462-2.5-2.538h3.5l1-3 1 3h3.5l-2.5 2.538 1 3.462-3-2.077z"></path>
</symbol>
</defs>
</svg>